Format                           : AVI
Format/Info                      : Audio Video Interleave
File size                        : 62.9 MiB
Duration                         : 6mn 31s
Overall bit rate                 : 1 347 Kbps
Writing application              : Lavf51.12.1

Video
ID                               : 0
Format                           : xvid
Codec ID                         : xvid
Duration                         : 6mn 31s
Bit rate                         : 1 206 Kbps
Width                            : 720 pixels
Height                           : 480 pixels
Display aspect ratio             : 3:2
Frame rate                       : 29.970 fps
Standard                         : NTSC
Bits/(Pixel*Frame)               : 0.116
Stream size                      : 56.3 MiB (90%)

Audio
ID                               : 1
Format                           : MPEG Audio
Format version                   : Version 1
Format profile                   : Layer 3
Mode                             : Joint stereo
Mode extension                   : MS Stereo
Codec ID                         : 55
Codec ID/Hint                    : MP3
Duration                         : 6mn 31s
Bit rate mode                    : Constant
Bit rate                         : 128 Kbps
Channel(s)                       : 2 channels
Sampling rate                    : 44.1 KHz
Compression mode                 : Lossy
Stream size                      : 5.98 MiB (10%)
Alignment                        : Aligned on interleaves
Interleave, duration             : 26 ms (0.78 video frame)

Screen :
 
http://www.desiupload.com/show.php/871459_MaadhuriJhalakhthumb.jpg.html

Seeding Time : 2:00 - 8:00 IST,  Please Post Comments & Seed After Download

TPB IS BENEDICTION TO US
